<svg width="21" height="21" viewBox="0 0 21 21" fill="none" xmlns="http://www.w3.org/2000/svg">
<path d="M17.8586 4.81227C18.5969 5.69824 18.9653 6.73186 18.9653 7.91314C18.9653 12.1945 16.5297 13.4496 14.2409 13.8187C14.5363 14.3356 14.6101 14.9262 14.6101 15.5168V18.5431C14.6101 18.9122 14.3886 19.1337 14.0933 19.1337C14.0154 19.1348 13.9381 19.1203 13.866 19.091C13.7938 19.0617 13.7283 19.0182 13.6732 18.9631C13.6181 18.9081 13.5747 18.8425 13.5454 18.7704C13.5161 18.6982 13.5015 18.6209 13.5026 18.5431V15.5168C13.5415 15.2074 13.5085 14.8932 13.406 14.5987C13.3036 14.3041 13.1345 14.0372 12.912 13.8187L13.2812 12.859C15.5699 12.5636 17.9325 11.8253 17.9325 7.83931C17.9325 6.87952 17.5633 5.99356 16.8988 5.25525L16.7512 4.66542C17.0319 3.95799 17.0577 3.17491 16.8242 2.45052C16.4558 2.52354 15.7175 2.67201 14.4632 3.55797L14.0195 3.63099C12.2757 3.18822 10.449 3.18822 8.7053 3.63099L8.26151 3.55797C6.93419 2.74584 6.19589 2.52435 5.82592 2.52435C5.60443 3.26265 5.60443 4.07397 5.89894 4.73925L5.75209 5.32909C5.01379 6.06739 4.64464 7.02718 4.64464 7.91314C4.64464 11.8253 6.85955 12.6375 9.29513 12.9328L9.59045 13.8926C9.14747 14.3356 8.92598 14.9262 8.99981 15.5168V18.6169C9.0009 18.6948 8.98637 18.7721 8.95708 18.8442C8.92778 18.9164 8.88432 18.9819 8.82925 19.037C8.77419 19.092 8.70864 19.1355 8.63648 19.1648C8.56433 19.1941 8.48704 19.2086 8.40917 19.2075C8.3313 19.2086 8.25401 19.1941 8.18186 19.1648C8.1097 19.1355 8.04416 19.092 7.98909 19.037C7.93402 18.9819 7.89056 18.9164 7.86126 18.8442C7.83197 18.7721 7.81744 18.6948 7.81853 18.6169V16.9196C5.38294 17.4364 4.42315 16.1813 3.68485 15.2223C3.3157 14.7793 3.02038 14.4102 2.65123 14.3364C2.57821 14.2625 2.35591 13.9672 2.42974 13.6719C2.50357 13.3766 2.79889 13.1551 3.09502 13.3027C3.83332 13.4504 4.27549 14.041 4.71766 14.5579C5.38294 15.4438 6.04741 16.2551 8.04002 15.813V15.5177C7.967 14.927 8.11385 14.3364 8.40917 13.8196C6.19426 13.3766 3.61102 12.1215 3.61102 7.91395C3.61102 6.73267 3.98017 5.69905 4.71847 4.81309C4.49698 3.78027 4.57081 2.67282 4.93996 1.78686L5.30911 1.49154C5.45677 1.41771 6.4904 1.19622 8.62985 2.52435C10.3988 2.08143 12.2497 2.08143 14.0186 2.52435C16.0867 1.12158 17.1942 1.34225 17.3418 1.4169L17.711 1.71222C18.0801 2.74584 18.1539 3.77946 17.8586 4.81227Z" fill="#B3A282"/>
</svg>
