<svg width="21" height="21" viewBox="0 0 21 21" fill="none" xmlns="http://www.w3.org/2000/svg">
<path d="M16.7879 2.97869C16.5925 2.9929 16.4008 3.03873 16.2201 3.11438H16.2177C16.0443 3.18314 15.2198 3.52998 13.9663 4.05572L9.47442 5.94751C6.25124 7.30445 3.08283 8.64069 3.08283 8.64069L3.12056 8.62609C3.12056 8.62609 2.90211 8.69789 2.67393 8.85427C2.53296 8.94398 2.41165 9.06135 2.31735 9.19929C2.20539 9.36358 2.11533 9.61489 2.1488 9.87471C2.20356 10.314 2.48834 10.5775 2.69279 10.7229C2.89968 10.8702 3.09683 10.939 3.09683 10.939H3.1017L6.07296 11.9399C6.20622 12.3677 6.97839 14.9063 7.16398 15.4911C7.27351 15.8404 7.37999 16.0588 7.51325 16.2255C7.57775 16.3107 7.65321 16.3819 7.74387 16.4391C7.79101 16.4665 7.84126 16.4882 7.89356 16.5036L7.86314 16.4963C7.87226 16.4987 7.87957 16.506 7.88626 16.5085C7.9106 16.5152 7.92703 16.5176 7.95806 16.5225C8.42842 16.6649 8.8063 16.3728 8.8063 16.3728L8.82759 16.3557L10.5819 14.7585L13.5221 17.0141L13.589 17.0427C14.2018 17.3117 14.8224 17.162 15.1504 16.8979C15.4808 16.632 15.6092 16.2919 15.6092 16.2919L15.6305 16.2371L17.9026 4.59727C17.9671 4.31007 17.9836 4.04111 17.9124 3.78007C17.8389 3.51588 17.6694 3.28866 17.4371 3.14298C17.2421 3.0244 17.0159 2.96716 16.7879 2.97869ZM16.7264 4.22609C16.724 4.26443 16.7313 4.26017 16.7142 4.3338V4.34049L14.4634 15.8592C14.4537 15.8756 14.4373 15.9115 14.3922 15.9474C14.3448 15.9852 14.3071 16.0089 14.1093 15.9304L10.5131 13.1733L8.3408 15.1534L8.79717 12.2387L14.6728 6.76228C14.9149 6.53714 14.834 6.48968 14.834 6.48968C14.851 6.21342 14.4683 6.40875 14.4683 6.40875L7.05932 10.9986L7.05689 10.9864L3.50573 9.79074V9.78831L3.49661 9.78648C3.50283 9.78441 3.50893 9.78198 3.51486 9.77918L3.53433 9.76944L3.5532 9.76275C3.5532 9.76275 6.72404 8.4265 9.94722 7.06957C11.5609 6.38989 13.1868 5.70533 14.4373 5.17717C15.6877 4.65204 16.612 4.26686 16.6643 4.24617C16.7142 4.2267 16.6905 4.2267 16.7264 4.2267V4.22609Z" fill="#B3A282"/>
</svg>
