<svg width="20" height="19" viewBox="0 0 20 19" fill="none" xmlns="http://www.w3.org/2000/svg">
<path d="M5.83483 17.9287C5.59278 17.9286 5.36066 17.8405 5.18952 17.6835C5.01839 17.5266 4.92224 17.3139 4.92224 17.092V15.1397H4.00951C3.60619 15.1393 3.21952 14.9923 2.93433 14.7309C2.64914 14.4694 2.48872 14.115 2.48828 13.7453V3.70519C2.48872 3.33548 2.64914 2.98103 2.93433 2.71961C3.21952 2.45818 3.60619 2.31114 4.00951 2.31073H16.1793C16.5826 2.31114 16.9693 2.45818 17.2545 2.71961C17.5397 2.98103 17.7001 3.33548 17.7005 3.70519V11.2529C17.7008 11.4574 17.6519 11.6594 17.5573 11.8446C17.4627 12.0297 17.3247 12.1935 17.1531 12.3242L13.8904 14.8165C13.6169 15.0252 13.2724 15.1395 12.9166 15.1397H9.81641L6.41928 17.7348C6.25523 17.8601 6.0484 17.9287 5.83483 17.9287ZM4.31375 13.4664H5.83498C6.07705 13.4664 6.30921 13.5545 6.48038 13.7114C6.65155 13.8684 6.74772 14.0812 6.74772 14.3031V15.3057L8.73238 13.7896C9.00587 13.581 9.35038 13.4666 9.7062 13.4664H12.8064L15.8751 11.1222V3.98408H4.31375V13.4664Z" fill="#B3A282"/>
<path d="M13.1369 10.6775C12.8948 10.6775 12.6626 10.5893 12.4915 10.4324C12.3203 10.2755 12.2241 10.0627 12.2241 9.8408V6.4941C12.2241 6.2722 12.3203 6.05939 12.4915 5.90248C12.6626 5.74557 12.8948 5.65742 13.1369 5.65742C13.3789 5.65742 13.6111 5.74557 13.7823 5.90248C13.9534 6.05939 14.0496 6.2722 14.0496 6.4941V9.8408C14.0496 10.0627 13.9534 10.2755 13.7823 10.4324C13.6111 10.5893 13.3789 10.6775 13.1369 10.6775Z" fill="#B3A282"/>
<path d="M9.48586 10.6775C9.24378 10.6775 9.01163 10.5893 8.84045 10.4324C8.66928 10.2755 8.57312 10.0627 8.57312 9.8408V6.4941C8.57312 6.2722 8.66928 6.05939 8.84045 5.90248C9.01163 5.74557 9.24378 5.65742 9.48586 5.65742C9.72793 5.65742 9.96009 5.74557 10.1313 5.90248C10.3024 6.05939 10.3986 6.2722 10.3986 6.4941V9.8408C10.3986 10.0627 10.3024 10.2755 10.1313 10.4324C9.96009 10.5893 9.72793 10.6775 9.48586 10.6775Z" fill="#B3A282"/>
</svg>
